# xmcd
#
# Track frame offsets: 
#        150
#        15184
#        30978
#        45376
#        65547
#        82683
#        101469
#        117376
#        135785
#        143244
#        160359
#        178355
#        199827
#        216804
#        235877
#        253653
#        272526
#
# Disc length: 3966 seconds
#
# Revision: 0
# Processed by: cddbd v1.5.2PL0 Copyright (c) Steve Scherf et al.
# Submitted via: ExactAudioCopy v1.0b3
#
DISCID=db0f7c11
DTITLE=Big K.R.I.T. - Cadillactica (Deluxe Edition)
DYEAR=2014
DGENRE=Hip-Hop
TTITLE0=Kreation (intro)
TTITLE1=Life
TTITLE2=My Sub Pt. 3 (Big Bang)
TTITLE3=Cadillactica
TTITLE4=Soul Food (feat. Raphael Saadiq)
TTITLE5=Pay Attention (feat. Rico Love)
TTITLE6=King of the South
TTITLE7=Mind Control (feat. E-40 and Wiz Khalifa)
TTITLE8=Standby (interlude)
TTITLE9=Do You Love Me (feat. Mara Hruby)
TTITLE10=Third Eye
TTITLE11=Mo Better Cool (feat. Devin the Dude, Big Sant and Bun B)
TTITLE12=Angels
TTITLE13=Saturdays =Celebration (feat. Jamie N Commons)
TTITLE14=Lost Generation (feat. Lupe Fiasco)
TTITLE15=Mt. Olympus (reprise)
TTITLE16=Lac Lac (feat. A$AP Ferg)
EXTD=
EXTT0=
EXTT1=
EXTT2=
EXTT3=
EXTT4=
EXTT5=
EXTT6=
EXTT7=
EXTT8=
EXTT9=
EXTT10=
EXTT11=
EXTT12=
EXTT13=
EXTT14=
EXTT15=
EXTT16=
PLAYORDER=
